<svg viewBox="0 0 55 40" fill="none" xmlns="http://www.w3.org/2000/svg">
	<path d="M54.6843 23.7597L47.7688 36.6925C47.2307 37.699 46.4601 38.534 45.5339 39.1143C44.6078 39.6946 43.5583 40 42.4903 40H4.29926C2.53057 40 1.42857 37.907 2.31974 36.2403L9.23523 23.3075C9.77341 22.301 10.544 21.466 11.4702 20.8857C12.3964 20.3054 13.4458 20 14.5139 20H52.7049C54.4736 20 55.5756 22.093 54.6843 23.7597ZM14.5139 16.6667H45.8333V11.6667C45.8333 8.90521 43.7813 6.66667 41.25 6.66667H25.9722L19.8611 0H4.58333C2.052 0 0 2.23854 0 5V33.9631L6.59589 21.6279C8.23224 18.5677 11.2663 16.6667 14.5139 16.6667Z" fill="#FFB0B0" />
</svg>
