<svg width="299" height="75" viewBox="0 0 299 75" fill="none" xmlns="http://www.w3.org/2000/svg">
	<mask id="mask0_52_54" style="mask-type:alpha" maskUnits="userSpaceOnUse" x="0" y="12" width="86" height="51">
		<path d="M85.2878 47.2589C85.2878 56.0385 78.2916 62.5 69.6295 62.5C47.5213 62.5 43.4302 29.2333 21.6951 29.2333C2.11887 29.2333 2.09222 57.504 22.4414 57.504C28.105 57.504 34.5549 55.1326 39.1391 51.8419C39.8854 51.2956 41.3913 49.6703 42.1775 49.6703C42.9637 49.6703 43.6301 50.3364 43.6301 51.1224C43.6301 52.1616 41.8843 53.6671 41.1381 54.3332C35.6876 59.0761 27.7719 62.4867 20.5224 62.4867C9.40831 62.5 0 54.6263 0 43.1821C0 31.7379 8.9952 23.318 20.3625 23.318C45.056 23.318 50.0133 56.0785 68.5901 56.0785C81.903 56.0785 81.2233 37.4667 69.0432 37.4667C66.7111 37.4667 64.379 39.0121 62.7932 39.0121C61.6738 39.0121 60.6743 38.0529 60.6743 36.9338C60.6743 35.3884 61.3806 33.7763 61.3806 32.0977C61.3806 23.2248 54.5975 16.8165 45.8022 16.8165C38.726 16.8165 35.1413 21.7326 33.9685 21.7326C33.1423 21.7326 32.476 21.0665 32.476 20.2405C32.476 19.4944 33.0224 18.8682 33.5155 18.322C36.887 14.4851 42.1375 12.5 47.2148 12.5C57.7958 12.5 65.7516 20.2804 65.7516 30.8586C65.7516 31.7779 65.7116 32.6839 65.5917 33.6031C67.1775 33.1901 68.8033 32.977 70.3758 32.977C78.4648 32.977 85.2878 39.0121 85.2878 47.2589Z" fill="black" />
	</mask>
	<g mask="url(#mask0_52_54)">
		<ellipse cx="41.4184" cy="55.1439" rx="49.2319" ry="58.6354" fill="#FFB0B0" />
		<ellipse cx="24.0028" cy="17.8304" rx="45.3246" ry="31.983" fill="#9D9DFF" />
	</g>
	<mask id="mask1_52_54" style="mask-type:alpha" maskUnits="userSpaceOnUse" x="97" y="11" width="200" height="61">
		<path d="M97.9287 36.6172C97.9287 32.1836 98.583 28.2383 99.8916 24.7812C101.22 21.3047 103.29 18.5605 106.103 16.5488C108.915 14.5371 112.47 13.5312 116.767 13.5312C119.696 13.5312 122.792 13.9121 126.054 14.6738C127.108 15.2988 128.026 15.9531 128.808 16.6367C129.608 17.3008 130.37 18.1113 131.093 19.0684C131.093 20.4551 130.907 22.3008 130.536 24.6055C130.165 26.8906 129.696 29.0293 129.13 31.0215C128.583 32.9941 128.056 34.2734 127.548 34.8594C127.04 35.1133 126.61 35.2891 126.259 35.3867C125.907 35.4648 125.36 35.5039 124.618 35.5039C123.7 35.5039 122.841 35.4355 122.04 35.2988C121.239 35.1621 120.634 34.9766 120.224 34.7422L119.198 24.8691C117.812 24.4785 115.888 24.2832 113.427 24.2832C112.763 24.2832 112.274 24.293 111.962 24.3125C111.122 27.0078 110.653 30.6309 110.556 35.1816C110.536 35.7285 110.526 36.5586 110.526 37.6719C110.526 40.2891 110.663 42.4082 110.937 44.0293C111.19 45.5527 111.464 46.6953 111.757 47.457C112.05 48.2188 112.558 48.8047 113.28 49.2148C114.022 49.625 115.126 49.8301 116.591 49.8301C118.563 49.8301 120.38 49.5469 122.04 48.9805C123.72 48.3945 125.546 47.5449 127.519 46.4316C128.261 47.2324 128.827 47.8867 129.218 48.3945C129.628 48.9023 129.999 49.5273 130.331 50.2695C130.683 51.0117 130.917 51.8613 131.034 52.8184C130.722 53.4629 129.892 54.3223 128.544 55.3965C127.196 56.4707 125.429 57.4375 123.241 58.2969C121.054 59.1562 118.603 59.5859 115.888 59.5859C109.54 59.5859 104.96 57.6035 102.147 53.6387C99.335 49.6738 97.9287 44 97.9287 36.6172ZM133.231 20.6797C132.938 19.4883 132.743 18.502 132.646 17.7207C132.548 16.9199 132.509 16.002 132.528 14.9668C132.938 14.4395 133.573 13.9121 134.433 13.3848C135.312 12.8379 136.327 12.3789 137.479 12.0078C138.651 11.6367 139.862 11.4512 141.112 11.4512C143.554 11.4512 145.429 12.0664 146.737 13.2969C148.046 14.5273 148.7 16.3438 148.7 18.7461C148.7 20.4648 148.554 23.2285 148.261 27.0371C147.968 30.8457 147.548 34.8984 147.001 39.1953C146.454 43.4727 145.829 47.2129 145.126 50.416L145.185 50.4746L149.521 48.6582C151.044 49.9668 151.933 51.7051 152.187 53.873C152.187 54.0098 151.747 54.5762 150.868 55.5723C149.989 56.5488 148.827 57.4668 147.382 58.3262C145.956 59.166 144.315 59.5859 142.46 59.5859C140.526 59.5859 138.954 59.0488 137.743 57.9746C136.552 56.9004 135.985 55.0645 136.044 52.4668L136.103 47.1934C136.122 42.1934 136.171 37.6914 136.249 33.6875C136.347 29.6836 136.542 25.5527 136.835 21.2949L133.231 20.6797ZM154.56 41.6855C154.56 38.1504 155.126 35.084 156.259 32.4863C157.392 29.8887 159.13 27.877 161.474 26.4512C163.817 25.0059 166.757 24.2832 170.292 24.2832C174.198 24.2832 177.265 25.0156 179.491 26.4805C181.718 27.9258 183.271 29.9375 184.149 32.5156C185.048 35.0938 185.497 38.248 185.497 41.9785C185.497 45.3574 184.901 48.375 183.71 51.0312C182.538 53.668 180.761 55.7578 178.378 57.3008C176.015 58.8242 173.114 59.5859 169.677 59.5859C164.364 59.5859 160.517 57.9551 158.134 54.6934C155.751 51.4121 154.56 47.0762 154.56 41.6855ZM170.878 51.002C171.874 51.002 172.479 50.9238 172.694 50.7676C173.144 49.9863 173.485 48.8828 173.72 47.457C173.954 46.0312 174.071 44.4883 174.071 42.8281C174.071 41.3047 173.974 39.8789 173.778 38.5508C173.583 37.2031 173.31 36.1484 172.958 35.3867C172.743 35.1328 172.313 34.9473 171.669 34.8301C171.024 34.6934 170.321 34.625 169.56 34.625C168.563 34.625 167.88 34.7324 167.509 34.9473C166.532 36.627 166.044 38.9609 166.044 41.9492C166.044 43.3555 166.151 44.791 166.366 46.2559C166.581 47.7207 166.854 49.0488 167.187 50.2402C167.421 50.4941 167.899 50.6895 168.622 50.8262C169.345 50.9434 170.097 51.002 170.878 51.002ZM189.159 33.7461C188.827 32.3203 188.612 31.2754 188.515 30.6113C188.417 29.9473 188.368 28.9414 188.368 27.5938C189.521 26.5 190.761 25.6797 192.089 25.1328C193.417 24.5664 194.911 24.2832 196.571 24.2832C201.61 24.2832 204.13 26.8125 204.13 31.8711C204.13 33.2188 204.003 34.7812 203.749 36.5586C203.515 38.3359 203.173 40.5723 202.724 43.2676C202.665 43.6191 202.509 44.5664 202.255 46.1094C202.001 47.6523 201.825 48.9414 201.728 49.9766C202.06 50.3281 202.47 50.5723 202.958 50.709C203.192 50.709 203.729 50.2305 204.569 49.2734C205.429 48.2969 206.347 47.1152 207.323 45.7285C208.3 44.3418 209.101 43.0625 209.726 41.8906C209.882 39.0977 210.097 36.5293 210.37 34.1855L207.294 33.5703C207.04 32.5938 206.864 31.7344 206.767 30.9922C206.669 30.25 206.62 29.459 206.62 28.6191L206.649 27.7988C207.353 26.9004 208.407 26.0898 209.813 25.3672C211.22 24.6445 212.831 24.2832 214.647 24.2832C219.687 24.2832 222.206 26.8125 222.206 31.8711C222.206 33.9219 221.864 36.627 221.181 39.9863C220.497 43.3262 219.696 46.7051 218.778 50.123L222.147 48.6582C222.714 49.2637 223.212 50.0059 223.642 50.8848C224.091 51.7441 224.374 52.7402 224.491 53.873C224.218 54.459 223.622 55.2109 222.704 56.1289C221.786 57.0273 220.663 57.8281 219.335 58.5312C218.007 59.2344 216.62 59.5859 215.175 59.5859C213.554 59.5859 212.304 59.1074 211.425 58.1504C210.565 57.1738 210.136 55.9336 210.136 54.4297C210.136 54.0391 210.233 53.2383 210.429 52.0273C210.644 50.8164 210.819 49.9766 210.956 49.5078L210.136 49.2441C209.159 52.6621 207.812 55.2402 206.093 56.9785C204.394 58.7168 202.45 59.5859 200.263 59.5859C197.118 59.5859 194.901 58.5508 193.612 56.4805C192.323 54.3906 191.679 51.8027 191.679 48.7168C191.679 42.916 191.874 38.0723 192.265 34.1855L189.159 33.7461ZM227.069 42.0957C227.069 39.127 227.479 36.2852 228.3 33.5703C229.14 30.8555 230.448 28.6289 232.226 26.8906C234.022 25.1523 236.278 24.2832 238.993 24.2832C242.04 24.2832 244.95 25.25 247.724 27.1836L248.192 26.8906C248.134 24.6055 247.851 22.5352 247.343 20.6797L241.396 20.2988C241.122 19.9473 240.907 19.4297 240.751 18.7461C240.595 18.043 240.517 17.3203 240.517 16.5781C240.517 15.582 240.634 14.7227 240.868 14C242.04 13.1602 243.544 12.5254 245.38 12.0957C247.216 11.666 249.052 11.4512 250.888 11.4512C252.919 11.4512 254.452 11.8809 255.487 12.7402C256.522 13.5801 257.216 14.8594 257.567 16.5781C257.938 18.2773 258.124 20.6406 258.124 23.668C258.124 27.6523 257.958 32.1738 257.626 37.2324C257.294 42.291 256.864 46.4219 256.337 49.625L256.22 50.123L259.618 48.6582C260.185 49.2637 260.683 50.0059 261.112 50.8848C261.562 51.7441 261.845 52.7402 261.962 53.873C261.688 54.459 261.093 55.2109 260.175 56.1289C259.257 57.0273 258.134 57.8281 256.806 58.5312C255.478 59.2344 254.091 59.5859 252.646 59.5859C251.024 59.5859 249.774 59.1074 248.896 58.1504C248.036 57.1738 247.606 55.9336 247.606 54.4297C247.606 54.0391 247.704 53.2383 247.899 52.0273C248.114 50.8164 248.29 49.9766 248.427 49.5078L247.548 49.2441C246.552 52.7402 245.233 55.3379 243.593 57.0371C241.952 58.7363 239.921 59.5859 237.499 59.5859C234.901 59.5859 232.821 58.7266 231.259 57.0078C229.716 55.2695 228.632 53.0918 228.007 50.4746C227.382 47.8574 227.069 45.0645 227.069 42.0957ZM247.167 41.5684C247.284 40.8652 247.343 40.0449 247.343 39.1074C247.343 38.502 247.313 37.9258 247.255 37.3789C247.216 36.832 247.167 36.4414 247.108 36.207C246.327 35.6406 245.438 35.2402 244.442 35.0059C243.466 34.7715 242.567 34.6543 241.747 34.6543C241.239 34.6543 240.692 34.7031 240.106 34.8008C239.716 35.1914 239.403 36.041 239.169 37.3496C238.935 38.6387 238.817 40.0938 238.817 41.7148C238.817 43.4531 238.935 45.1426 239.169 46.7832C239.423 48.4043 239.774 49.6738 240.224 50.5918C240.536 50.5918 241.142 50.1133 242.04 49.1562C242.958 48.1797 243.905 46.9883 244.882 45.582C245.858 44.1562 246.62 42.8184 247.167 41.5684ZM274.354 55.3379C273.983 53.8926 273.29 51.8027 272.274 49.0684C271.259 46.3145 270.194 43.668 269.081 41.1289C267.968 38.5898 267.089 36.8418 266.444 35.8848L263.749 35.416C263.476 34.6543 263.261 33.8145 263.104 32.8965C262.968 31.959 262.851 30.875 262.753 29.6445C263.085 28.7266 263.593 27.8574 264.276 27.0371C264.96 26.2168 265.78 25.5527 266.737 25.0449C267.714 24.5371 268.769 24.2832 269.901 24.2832C271.757 24.2832 273.29 24.8105 274.501 25.8652C275.731 26.9004 276.679 28.209 277.343 29.791C278.026 31.3535 278.622 33.1992 279.13 35.3281C280.165 39.4492 280.829 44.5566 281.122 50.6504L281.767 50.5332C282.528 48.834 283.173 46.4023 283.7 43.2383C284.247 40.0742 284.54 37.0371 284.579 34.127L280.917 33.5703C280.487 31.9297 280.272 30.0059 280.272 27.7988C280.702 27.2715 281.317 26.7441 282.118 26.2168C282.938 25.6699 283.905 25.2109 285.019 24.8398C286.132 24.4687 287.313 24.2832 288.563 24.2832C293.603 24.2832 296.122 26.8125 296.122 31.8711C296.122 35.8555 295.399 39.7227 293.954 43.4727C292.528 47.2227 290.38 50.6113 287.509 53.6387C284.638 56.666 281.142 59.0488 277.021 60.7871L277.255 61.7539C277.782 61.8125 278.3 61.8418 278.808 61.8418C280.468 61.8418 282.47 61.5684 284.813 61.0215C286.142 62.5059 286.806 64.127 286.806 65.8848C286.806 66.4121 286.747 66.9492 286.63 67.4961C285.458 68.6289 283.993 69.6055 282.235 70.4258C280.478 71.2461 278.544 71.6562 276.435 71.6562C273.368 71.6562 270.888 70.9629 268.993 69.5762C267.099 68.1895 266.151 66.0801 266.151 63.248C266.151 61.9785 266.532 60.8652 267.294 59.9082C268.075 58.9707 268.974 58.209 269.989 57.623C271.024 57.0176 272.479 56.2559 274.354 55.3379Z" fill="white" />
	</mask>
	<g mask="url(#mask1_52_54)">
		<ellipse cx="197.288" cy="20" rx="150" ry="75" fill="#FFB0B0" />
		<ellipse cx="166.288" rx="100" ry="50" fill="#9D9DFF" />
	</g>
</svg>
