<svg viewBox="0 0 202 75" fill="none" xmlns="http://www.w3.org/2000/svg">
	<mask id="mask0_39_22" style="mask-type:alpha" maskUnits="userSpaceOnUse" x="1" y="11" width="199" height="61">
		<path d="M1.64062 36.6172C1.64062 32.1836 2.29492 28.2383 3.60352 24.7812C4.93164 21.3047 7.00195 18.5605 9.81445 16.5488C12.627 14.5371 16.1816 13.5312 20.4785 13.5312C23.4082 13.5312 26.5039 13.9121 29.7656 14.6738C30.8203 15.2988 31.7383 15.9531 32.5195 16.6367C33.3203 17.3008 34.082 18.1113 34.8047 19.0684C34.8047 20.4551 34.6191 22.3008 34.248 24.6055C33.877 26.8906 33.4082 29.0293 32.8418 31.0215C32.2949 32.9941 31.7676 34.2734 31.2598 34.8594C30.752 35.1133 30.3223 35.2891 29.9707 35.3867C29.6191 35.4648 29.0723 35.5039 28.3301 35.5039C27.4121 35.5039 26.5527 35.4355 25.752 35.2988C24.9512 35.1621 24.3457 34.9766 23.9355 34.7422L22.9102 24.8691C21.5234 24.4785 19.5996 24.2832 17.1387 24.2832C16.4746 24.2832 15.9863 24.293 15.6738 24.3125C14.834 27.0078 14.3652 30.6309 14.2676 35.1816C14.248 35.7285 14.2383 36.5586 14.2383 37.6719C14.2383 40.2891 14.375 42.4082 14.6484 44.0293C14.9023 45.5527 15.1758 46.6953 15.4688 47.457C15.7617 48.2188 16.2695 48.8047 16.9922 49.2148C17.7344 49.625 18.8379 49.8301 20.3027 49.8301C22.2754 49.8301 24.0918 49.5469 25.752 48.9805C27.4316 48.3945 29.2578 47.5449 31.2305 46.4316C31.9727 47.2324 32.5391 47.8867 32.9297 48.3945C33.3398 48.9023 33.7109 49.5273 34.043 50.2695C34.3945 51.0117 34.6289 51.8613 34.7461 52.8184C34.4336 53.4629 33.6035 54.3223 32.2559 55.3965C30.9082 56.4707 29.1406 57.4375 26.9531 58.2969C24.7656 59.1562 22.3145 59.5859 19.5996 59.5859C13.252 59.5859 8.67188 57.6035 5.85938 53.6387C3.04688 49.6738 1.64062 44 1.64062 36.6172ZM36.9434 20.6797C36.6504 19.4883 36.4551 18.502 36.3574 17.7207C36.2598 16.9199 36.2207 16.002 36.2402 14.9668C36.6504 14.4395 37.2852 13.9121 38.1445 13.3848C39.0234 12.8379 40.0391 12.3789 41.1914 12.0078C42.3633 11.6367 43.5742 11.4512 44.8242 11.4512C47.2656 11.4512 49.1406 12.0664 50.4492 13.2969C51.7578 14.5273 52.4121 16.3438 52.4121 18.7461C52.4121 20.4648 52.2656 23.2285 51.9727 27.0371C51.6797 30.8457 51.2598 34.8984 50.7129 39.1953C50.166 43.4727 49.541 47.2129 48.8379 50.416L48.8965 50.4746L53.2324 48.6582C54.7559 49.9668 55.6445 51.7051 55.8984 53.873C55.8984 54.0098 55.459 54.5762 54.5801 55.5723C53.7012 56.5488 52.5391 57.4668 51.0938 58.3262C49.668 59.166 48.0273 59.5859 46.1719 59.5859C44.2383 59.5859 42.666 59.0488 41.4551 57.9746C40.2637 56.9004 39.6973 55.0645 39.7559 52.4668L39.8145 47.1934C39.834 42.1934 39.8828 37.6914 39.9609 33.6875C40.0586 29.6836 40.2539 25.5527 40.5469 21.2949L36.9434 20.6797ZM58.2715 41.6855C58.2715 38.1504 58.8379 35.084 59.9707 32.4863C61.1035 29.8887 62.8418 27.877 65.1855 26.4512C67.5293 25.0059 70.4688 24.2832 74.0039 24.2832C77.9102 24.2832 80.9766 25.0156 83.2031 26.4805C85.4297 27.9258 86.9824 29.9375 87.8613 32.5156C88.7598 35.0938 89.209 38.248 89.209 41.9785C89.209 45.3574 88.6133 48.375 87.4219 51.0312C86.25 53.668 84.4727 55.7578 82.0898 57.3008C79.7266 58.8242 76.8262 59.5859 73.3887 59.5859C68.0762 59.5859 64.2285 57.9551 61.8457 54.6934C59.4629 51.4121 58.2715 47.0762 58.2715 41.6855ZM74.5898 51.002C75.5859 51.002 76.1914 50.9238 76.4062 50.7676C76.8555 49.9863 77.1973 48.8828 77.4316 47.457C77.666 46.0312 77.7832 44.4883 77.7832 42.8281C77.7832 41.3047 77.6855 39.8789 77.4902 38.5508C77.2949 37.2031 77.0215 36.1484 76.6699 35.3867C76.4551 35.1328 76.0254 34.9473 75.3809 34.8301C74.7363 34.6934 74.0332 34.625 73.2715 34.625C72.2754 34.625 71.5918 34.7324 71.2207 34.9473C70.2441 36.627 69.7559 38.9609 69.7559 41.9492C69.7559 43.3555 69.8633 44.791 70.0781 46.2559C70.293 47.7207 70.5664 49.0488 70.8984 50.2402C71.1328 50.4941 71.6113 50.6895 72.334 50.8262C73.0566 50.9434 73.8086 51.002 74.5898 51.002ZM92.8711 33.7461C92.5391 32.3203 92.3242 31.2754 92.2266 30.6113C92.1289 29.9473 92.0801 28.9414 92.0801 27.5938C93.2324 26.5 94.4727 25.6797 95.8008 25.1328C97.1289 24.5664 98.623 24.2832 100.283 24.2832C105.322 24.2832 107.842 26.8125 107.842 31.8711C107.842 33.2188 107.715 34.7812 107.461 36.5586C107.227 38.3359 106.885 40.5723 106.436 43.2676C106.377 43.6191 106.221 44.5664 105.967 46.1094C105.713 47.6523 105.537 48.9414 105.439 49.9766C105.771 50.3281 106.182 50.5723 106.67 50.709C106.904 50.709 107.441 50.2305 108.281 49.2734C109.141 48.2969 110.059 47.1152 111.035 45.7285C112.012 44.3418 112.812 43.0625 113.438 41.8906C113.594 39.0977 113.809 36.5293 114.082 34.1855L111.006 33.5703C110.752 32.5938 110.576 31.7344 110.479 30.9922C110.381 30.25 110.332 29.459 110.332 28.6191L110.361 27.7988C111.064 26.9004 112.119 26.0898 113.525 25.3672C114.932 24.6445 116.543 24.2832 118.359 24.2832C123.398 24.2832 125.918 26.8125 125.918 31.8711C125.918 33.9219 125.576 36.627 124.893 39.9863C124.209 43.3262 123.408 46.7051 122.49 50.123L125.859 48.6582C126.426 49.2637 126.924 50.0059 127.354 50.8848C127.803 51.7441 128.086 52.7402 128.203 53.873C127.93 54.459 127.334 55.2109 126.416 56.1289C125.498 57.0273 124.375 57.8281 123.047 58.5312C121.719 59.2344 120.332 59.5859 118.887 59.5859C117.266 59.5859 116.016 59.1074 115.137 58.1504C114.277 57.1738 113.848 55.9336 113.848 54.4297C113.848 54.0391 113.945 53.2383 114.141 52.0273C114.355 50.8164 114.531 49.9766 114.668 49.5078L113.848 49.2441C112.871 52.6621 111.523 55.2402 109.805 56.9785C108.105 58.7168 106.162 59.5859 103.975 59.5859C100.83 59.5859 98.6133 58.5508 97.3242 56.4805C96.0352 54.3906 95.3906 51.8027 95.3906 48.7168C95.3906 42.916 95.5859 38.0723 95.9766 34.1855L92.8711 33.7461ZM130.781 42.0957C130.781 39.127 131.191 36.2852 132.012 33.5703C132.852 30.8555 134.16 28.6289 135.938 26.8906C137.734 25.1523 139.99 24.2832 142.705 24.2832C145.752 24.2832 148.662 25.25 151.436 27.1836L151.904 26.8906C151.846 24.6055 151.562 22.5352 151.055 20.6797L145.107 20.2988C144.834 19.9473 144.619 19.4297 144.463 18.7461C144.307 18.043 144.229 17.3203 144.229 16.5781C144.229 15.582 144.346 14.7227 144.58 14C145.752 13.1602 147.256 12.5254 149.092 12.0957C150.928 11.666 152.764 11.4512 154.6 11.4512C156.631 11.4512 158.164 11.8809 159.199 12.7402C160.234 13.5801 160.928 14.8594 161.279 16.5781C161.65 18.2773 161.836 20.6406 161.836 23.668C161.836 27.6523 161.67 32.1738 161.338 37.2324C161.006 42.291 160.576 46.4219 160.049 49.625L159.932 50.123L163.33 48.6582C163.896 49.2637 164.395 50.0059 164.824 50.8848C165.273 51.7441 165.557 52.7402 165.674 53.873C165.4 54.459 164.805 55.2109 163.887 56.1289C162.969 57.0273 161.846 57.8281 160.518 58.5312C159.189 59.2344 157.803 59.5859 156.357 59.5859C154.736 59.5859 153.486 59.1074 152.607 58.1504C151.748 57.1738 151.318 55.9336 151.318 54.4297C151.318 54.0391 151.416 53.2383 151.611 52.0273C151.826 50.8164 152.002 49.9766 152.139 49.5078L151.26 49.2441C150.264 52.7402 148.945 55.3379 147.305 57.0371C145.664 58.7363 143.633 59.5859 141.211 59.5859C138.613 59.5859 136.533 58.7266 134.971 57.0078C133.428 55.2695 132.344 53.0918 131.719 50.4746C131.094 47.8574 130.781 45.0645 130.781 42.0957ZM150.879 41.5684C150.996 40.8652 151.055 40.0449 151.055 39.1074C151.055 38.502 151.025 37.9258 150.967 37.3789C150.928 36.832 150.879 36.4414 150.82 36.207C150.039 35.6406 149.15 35.2402 148.154 35.0059C147.178 34.7715 146.279 34.6543 145.459 34.6543C144.951 34.6543 144.404 34.7031 143.818 34.8008C143.428 35.1914 143.115 36.041 142.881 37.3496C142.646 38.6387 142.529 40.0938 142.529 41.7148C142.529 43.4531 142.646 45.1426 142.881 46.7832C143.135 48.4043 143.486 49.6738 143.936 50.5918C144.248 50.5918 144.854 50.1133 145.752 49.1562C146.67 48.1797 147.617 46.9883 148.594 45.582C149.57 44.1562 150.332 42.8184 150.879 41.5684ZM178.066 55.3379C177.695 53.8926 177.002 51.8027 175.986 49.0684C174.971 46.3145 173.906 43.668 172.793 41.1289C171.68 38.5898 170.801 36.8418 170.156 35.8848L167.461 35.416C167.188 34.6543 166.973 33.8145 166.816 32.8965C166.68 31.959 166.562 30.875 166.465 29.6445C166.797 28.7266 167.305 27.8574 167.988 27.0371C168.672 26.2168 169.492 25.5527 170.449 25.0449C171.426 24.5371 172.48 24.2832 173.613 24.2832C175.469 24.2832 177.002 24.8105 178.213 25.8652C179.443 26.9004 180.391 28.209 181.055 29.791C181.738 31.3535 182.334 33.1992 182.842 35.3281C183.877 39.4492 184.541 44.5566 184.834 50.6504L185.479 50.5332C186.24 48.834 186.885 46.4023 187.412 43.2383C187.959 40.0742 188.252 37.0371 188.291 34.127L184.629 33.5703C184.199 31.9297 183.984 30.0059 183.984 27.7988C184.414 27.2715 185.029 26.7441 185.83 26.2168C186.65 25.6699 187.617 25.2109 188.73 24.8398C189.844 24.4687 191.025 24.2832 192.275 24.2832C197.314 24.2832 199.834 26.8125 199.834 31.8711C199.834 35.8555 199.111 39.7227 197.666 43.4727C196.24 47.2227 194.092 50.6113 191.221 53.6387C188.35 56.666 184.854 59.0488 180.732 60.7871L180.967 61.7539C181.494 61.8125 182.012 61.8418 182.52 61.8418C184.18 61.8418 186.182 61.5684 188.525 61.0215C189.854 62.5059 190.518 64.127 190.518 65.8848C190.518 66.4121 190.459 66.9492 190.342 67.4961C189.17 68.6289 187.705 69.6055 185.947 70.4258C184.189 71.2461 182.256 71.6562 180.146 71.6562C177.08 71.6562 174.6 70.9629 172.705 69.5762C170.811 68.1895 169.863 66.0801 169.863 63.248C169.863 61.9785 170.244 60.8652 171.006 59.9082C171.787 58.9707 172.686 58.209 173.701 57.623C174.736 57.0176 176.191 56.2559 178.066 55.3379Z" fill="white" />
	</mask>
	<g mask="url(#mask0_39_22)">
		<ellipse cx="106" cy="29" rx="200" ry="100" fill="#E4ECFF" />
		<ellipse cx="77" cy="-19" rx="150" ry="75" fill="#FFB0B0" />
		<ellipse cx="65" cy="-4" rx="100" ry="50" fill="#9D9DFF" />
	</g>
</svg>
