<svg viewBox="0 0 22 22" fill="none" xmlns="http://www.w3.org/2000/svg">
	<path d="M19.5312 21.875H2.34375C1.0498 21.875 0 20.8252 0 19.5312V2.34375C0 1.0498 1.0498 0 2.34375 0H19.5312C20.8252 0 21.875 1.0498 21.875 2.34375V19.5312C21.875 20.8252 20.8252 21.875 19.5312 21.875ZM11.626 7.12402L5 13.75L4.69238 16.5381C4.65332 16.9092 4.96582 17.2266 5.3418 17.1875L8.12988 16.8799L14.7559 10.2539C14.8682 10.1416 14.8682 9.95605 14.7559 9.83887L12.0459 7.12891C11.9238 7.01172 11.7383 7.01172 11.626 7.12402ZM16.8457 6.49902L15.376 5.0293C14.917 4.57031 14.1748 4.57031 13.7207 5.0293L12.5928 6.15723C12.4805 6.26953 12.4805 6.45508 12.5928 6.57227L15.3027 9.28223C15.415 9.39453 15.6006 9.39453 15.7178 9.28223L16.8457 8.1543C17.2998 7.7002 17.2998 6.95801 16.8457 6.49902Z" fill="#FFB0B0" />
</svg>
