<svg width="43" height="30" viewBox="0 0 43 30" fill="none" xmlns="http://www.w3.org/2000/svg">
	<path d="M12.8571 15C17.0022 15 20.3571 11.6451 20.3571 7.5C20.3571 3.35491 17.0022 0 12.8571 0C8.71205 0 5.35714 3.35491 5.35714 7.5C5.35714 11.6451 8.71205 15 12.8571 15ZM18 17.1429H17.4442C16.0513 17.8125 14.5045 18.2143 12.8571 18.2143C11.2098 18.2143 9.66964 17.8125 8.27009 17.1429H7.71429C3.45536 17.1429 0 20.5982 0 24.8571V26.7857C0 28.5603 1.43973 30 3.21429 30H22.5C24.2746 30 25.7143 28.5603 25.7143 26.7857V24.8571C25.7143 20.5982 22.2589 17.1429 18 17.1429ZM32.1429 15C35.692 15 38.5714 12.1205 38.5714 8.57143C38.5714 5.02232 35.692 2.14286 32.1429 2.14286C28.5937 2.14286 25.7143 5.02232 25.7143 8.57143C25.7143 12.1205 28.5937 15 32.1429 15ZM35.3571 17.1429H35.1027C34.1719 17.4643 33.1875 17.6786 32.1429 17.6786C31.0982 17.6786 30.1138 17.4643 29.183 17.1429H28.9286C27.5625 17.1429 26.3036 17.5379 25.1987 18.1741C26.8326 19.9353 27.8571 22.2723 27.8571 24.8571V27.4286C27.8571 27.5759 27.8237 27.7165 27.817 27.8571H39.6429C41.4174 27.8571 42.8571 26.4174 42.8571 24.6429C42.8571 20.4978 39.5022 17.1429 35.3571 17.1429Z" fill="#FFB0B0" />
</svg>
