<svg width="32" height="30" viewBox="0 0 32 30" fill="none" xmlns="http://www.w3.org/2000/svg">
	<path d="M10.8292 9.71415L10.3091 9.78998L1.74956 11.0379L1.74883 11.038C1.03517 11.1415 0.746407 12.0248 1.26593 12.5307L1.26622 12.531L7.45881 18.5654L7.83555 18.9325L7.74647 19.4509L6.28192 27.9746C6.28192 27.9746 6.28192 27.9746 6.28191 27.9746C6.15934 28.6913 6.91544 29.2312 7.54625 28.8968L7.54939 28.8951L15.2066 24.8702L15.6719 24.6256L16.1372 24.8702L23.7945 28.8951L23.7946 28.8952C24.4324 29.2305 25.1835 28.6852 25.0619 27.9746C25.0619 27.9746 25.0619 27.9746 25.0619 27.9746L23.5974 19.4509L23.5083 18.9325L23.885 18.5654L30.0776 12.531L30.0779 12.5307C30.5974 12.0248 30.3087 11.1415 29.595 11.038L29.5943 11.0379L21.0348 9.78998L20.5147 9.71415L20.2822 9.24277L16.4574 1.48776C16.4573 1.48752 16.4572 1.48729 16.4571 1.48705C16.1336 0.835954 15.2067 0.839739 14.8873 1.48591L10.8292 9.71415ZM10.8292 9.71415L11.0616 9.24277L14.8872 1.48629L10.8292 9.71415Z" stroke="#FFB0B0" stroke-width="2" />
</svg>
