<svg width="27" height="30" viewBox="0 0 27 30" fill="none" xmlns="http://www.w3.org/2000/svg">
	<path d="M25.3125 1.87501H18.2812L17.7305 0.779307C17.6138 0.545057 17.4341 0.348012 17.2115 0.210337C16.989 0.0726631 16.7324 -0.00017742 16.4707 1.02731e-05H9.77343C9.51233 -0.000993469 9.25622 0.0715755 9.03445 0.209403C8.81269 0.34723 8.63423 0.544741 8.51953 0.779307L7.96875 1.87501H0.9375C0.688859 1.87501 0.450403 1.97378 0.274587 2.1496C0.098772 2.32541 0 2.56387 0 2.81251L0 4.68751C0 4.93615 0.098772 5.17461 0.274587 5.35042C0.450403 5.52624 0.688859 5.62501 0.9375 5.62501H25.3125C25.5611 5.62501 25.7996 5.52624 25.9754 5.35042C26.1512 5.17461 26.25 4.93615 26.25 4.68751V2.81251C26.25 2.56387 26.1512 2.32541 25.9754 2.1496C25.7996 1.97378 25.5611 1.87501 25.3125 1.87501ZM3.11719 27.3633C3.1619 28.0773 3.47705 28.7475 3.99847 29.2373C4.51989 29.7272 5.2084 29.9999 5.92383 30H20.3262C21.0416 29.9999 21.7301 29.7272 22.2515 29.2373C22.7729 28.7475 23.0881 28.0773 23.1328 27.3633L24.375 7.50001H1.875L3.11719 27.3633Z" fill="#FFB0B0" />
</svg>
